<?xml version="1.0" encoding="iso-8859-1"?>
<!-- Generator: Adobe Illustrator 19.1.0, SVG Export Plug-In . SVG Version: 6.00 Build 0)  -->
<svg version="1.1" id="Capa_1" xmlns="http://www.w3.org/2000/svg" xmlns:xlink="http://www.w3.org/1999/xlink" x="0px" y="0px"
	 width="266.751px" height="223.652px" viewBox="0 0 266.751 223.652" enable-background="new 0 0 266.751 223.652"
	 xml:space="preserve">
<g>
	<path fill="brown" d="M180.289,96.49c0-11.791-16.078-28.141-83.781-28.141c-67.738,0-83.816,16.35-83.816,28.141"/>
	<path fill="#FFFFFF" d="M96.508,80.1c-67.738,0-83.816,17.537-83.816,30.185v33.954h167.598v-33.954
		C180.289,97.637,164.211,80.1,96.508,80.1z"/>
	<g>
		<path fill="#FFFFFF" d="M164.211,143.455h-61.863v-27.917c0-3.904,3.035-7.065,6.777-7.065l2.844,0.736
			c13.996,3.629,28.621,3.629,42.613,0l2.848-0.736c3.746,0,6.781,3.161,6.781,7.065V143.455z"/>
	</g>
	<g>
		<path fill="#FFFFFF" d="M90.633,143.455H28.77v-27.917c0-3.904,3.039-7.065,6.777-7.065l2.844,0.736
			c13.996,3.629,28.629,3.629,42.613,0l2.852-0.736c3.742,0,6.777,3.161,6.777,7.065V143.455z"/>
	</g>
	<rect x="177.75" y="77.747" fill="#FFFFFF" width="12.574" height="98.296"/>
	<path fill="#FFFFFF" d="M190.324,220.994h-14.113l0.188-6.963H16.766v6.963H2.656v-6.963v-52.94c0-9.309,7.41-16.853,16.543-16.853
		h154.582c9.133,0,16.543,7.544,16.543,16.853v52.94V220.994z"/>
	<rect x="2.656" y="182.616" fill="#FFFFFF" width="187.668" height="12.532"/>
	<polygon fill="brown" points="16.766,220.994 2.656,220.994 2.656,195.148 190.324,195.148 190.324,220.994 176.211,220.994 
		176.211,214.031 16.766,214.031 	"/>
	<path fill="#2F2924" d="M258.98,2.264C258.789,0.966,257.672,0,256.352,0h-42.566c-1.312,0-2.434,0.966-2.633,2.264l-7.734,51.846
		c-0.113,0.768,0.109,1.541,0.613,2.129c0.508,0.586,1.238,0.924,2.012,0.924h8.676v23.139c0,1.471,1.191,2.658,2.66,2.658
		s2.656-1.188,2.656-2.658V57.162h12.375v73.344c-9.953,0.898-17.691,6.65-17.691,13.676c0,1.459,1.18,2.643,2.633,2.658
		l4.414,0.041l30.996-0.041c1.461,0,2.656-1.189,2.656-2.658c0-7.025-7.734-12.777-17.691-13.676V57.162h26.363
		c0.777,0,1.512-0.338,2.012-0.924c0.512-0.588,0.734-1.361,0.621-2.129L258.98,2.264z M249.293,141.523l-27.508,0.041l-0.961-0.01
		c2.047-3.35,7.82-5.908,14.223-5.914c0.008,0,0.016,0.006,0.016,0.006c0.016,0,0.02-0.006,0.023-0.006
		C241.473,135.646,247.227,138.189,249.293,141.523z M216.074,5.316h37.988l5.395,36.156h-48.781L216.074,5.316z M209.129,51.846
		l0.758-5.057h50.367l0.75,5.057H209.129z"/>
	<g>
		<path d="M235.055,167.057c2.113,0,3.832-1.802,3.832-4.019c0-2.222-1.719-4.019-3.832-4.019c-2.117,0-3.828,1.797-3.828,4.019
			C231.227,165.255,232.938,167.057,235.055,167.057z"/>
		<path d="M190.324,75.089H177.75c-1.469,0-2.66,1.188-2.66,2.658v4.009c-9.852-8.24-31.566-16.064-78.582-16.064
			c-47.078,0-68.781,7.835-78.625,16.084v-4.028c0-1.47-1.184-2.658-2.656-2.658H2.656C1.188,75.089,0,76.277,0,77.747v83.344v2.622
			v18.903v12.532v25.846c0,1.469,1.188,2.658,2.656,2.658h14.109c1.473,0,2.66-1.189,2.66-2.658v-4.305h154.129v4.305
			c0,0.171,0.066,0.326,0.098,0.488c0.035,0.171,0.035,0.348,0.098,0.508c0.094,0.229,0.25,0.421,0.395,0.607
			c0.062,0.084,0.094,0.177,0.164,0.25c0.004,0.005,0.008,0.005,0.016,0.01c0.477,0.488,1.145,0.795,1.887,0.795h14.113
			c1.465,0,2.656-1.189,2.656-2.658v-25.846v-12.532v-12.154v-9.371V77.747C192.98,76.277,191.789,75.089,190.324,75.089z
			 M105.008,140.797v-25.259c0-2.325,1.688-4.236,3.816-4.397l2.48,0.645c14.371,3.722,29.562,3.727,43.945,0l2.48-0.645
			c2.129,0.161,3.82,2.072,3.82,4.397v25.259H105.008z M157.43,105.814c-0.223,0-0.449,0.025-0.664,0.082l-2.848,0.738
			c-13.508,3.51-27.773,3.51-41.285,0l-2.844-0.738c-0.219-0.057-0.441-0.082-0.664-0.082c-5.203,0-9.434,4.361-9.434,9.724v26.042
			h-6.402v-26.042c0-5.362-4.234-9.724-9.434-9.724c-0.223,0-0.453,0.025-0.668,0.082l-2.848,0.738
			c-13.504,3.51-27.773,3.51-41.277,0l-2.852-0.738c-0.219-0.057-0.438-0.082-0.664-0.082c-5.203,0-9.434,4.361-9.434,9.724v26.042
			h-6.914h-1.316v-38.892c7.07-10.612,30.188-19.931,78.625-19.931c48.367,0,71.48,9.303,78.582,19.899v38.923h-1.309h-6.914
			v-26.042C166.867,110.176,162.633,105.814,157.43,105.814z M31.43,140.797v-25.259c0-2.325,1.688-4.236,3.82-4.397l2.477,0.645
			c14.375,3.727,29.574,3.727,43.949,0l2.477-0.645c2.129,0.161,3.82,2.072,3.82,4.397v25.259H31.43z M96.508,71.008
			c48.473,0,71.547,8.65,78.582,18.482V94.6c-9.836-8.8-31.52-17.158-78.582-17.158c-47.051,0-68.77,8.348-78.625,17.138v-5.14
			C24.977,79.627,48.102,71.008,96.508,71.008z M5.316,80.405h7.25v62.446c-2.77,1.044-5.246,2.695-7.25,4.834V80.405z
			 M187.664,192.49H5.316v-7.216h182.348V192.49z M187.664,218.336h-8.719l0.113-4.231c0.016-0.722-0.262-1.413-0.758-1.927
			c-0.5-0.514-1.184-0.805-1.902-0.805h-0.188H16.766c-1.469,0-2.656,1.189-2.656,2.658v4.305H5.316v-20.529h182.348V218.336z
			 M187.664,179.958H5.316v-15.991v-2.876c0-7.829,6.223-14.194,13.883-14.194h154.582c7.656,0,13.883,6.365,13.883,14.194v8.826
			V179.958z M180.406,142.852V80.405h7.258v67.28C185.66,145.547,183.184,143.896,180.406,142.852z"/>
		<path d="M261.742,141.58h-53.375c-1.473,0-2.66,1.189-2.66,2.658v76.756c0,1.469,1.188,2.658,2.66,2.658h53.375
			c1.469,0,2.656-1.189,2.656-2.658v-76.756C264.398,142.77,263.211,141.58,261.742,141.58z M259.082,146.896v33.062h-48.059
			v-33.062H259.082z M211.023,218.336v-33.062h48.059v33.062H211.023z"/>
		<path d="M235.055,198.7c-2.117,0-3.828,1.802-3.828,4.019c0,2.223,1.711,4.019,3.828,4.019c2.113,0,3.832-1.796,3.832-4.019
			C238.887,200.502,237.168,198.7,235.055,198.7z"/>
	</g>
</g>
</svg>
