<?xml version="1.0" encoding="iso-8859-1"?>
<!-- Generator: Adobe Illustrator 19.1.0, SVG Export Plug-In . SVG Version: 6.00 Build 0)  -->
<svg version="1.1" id="Capa_1" xmlns="http://www.w3.org/2000/svg" xmlns:xlink="http://www.w3.org/1999/xlink" x="0px" y="0px"
	 width="235.667px" height="203.57px" viewBox="0 0 235.667 203.57" enable-background="new 0 0 235.667 203.57"
	 xml:space="preserve">
<g>
	<path fill="#dddddd" d="M233.239,130.373c0-3.512-2.842-6.354-6.358-6.354H110.549v27.921c0,3.185-11.05,5.792-11.05,5.792
		s-11.05-2.607-11.05-5.792c0,3.185-11.05,5.792-11.05,5.792s-11.045-2.607-11.045-5.792c0,3.185-11.053,5.792-11.053,5.792
		s-11.05-2.607-11.05-5.792v-27.921h-0.265v27.921c0,3.185-11.05,5.792-11.05,5.792s-11.05-2.607-11.05-5.792v-27.921H8.785
		c-3.512,0-6.36,2.843-6.36,6.354s2.849,6.354,6.36,6.354H8.026c0,32.244,26.141,58.379,58.378,58.379h59.034
		c-0.229-0.758-0.389-1.54-0.389-2.369v-8.407h15.488c0,0,0.036-3.871,0.036-6.886c0-4.289,3.479-7.762,7.762-7.762
		c2.703,0,5.07,1.383,6.465,3.473l3.673,5.559l-6.297,5.92c3.604,0.947,6.297,4.213,6.297,8.104c0,0.829-0.158,1.611-0.382,2.369
		h11.173c32.237,0,58.373-26.135,58.373-58.379h-0.757C230.397,136.728,233.239,133.885,233.239,130.373z"/>
	<g>
		<path d="M226.881,121.592h-6.429c0.058-0.204,0.135-0.407,0.135-0.63V34.405C220.587,15.435,205.152,0,186.181,0H154.29
			c-0.943,0-1.801,0.545-2.199,1.394l-5.559,11.814c-0.356,0.753-0.299,1.629,0.146,2.332c0.446,0.7,1.22,1.126,2.048,1.126h26.416
			c0.834,0,1.604-0.426,2.051-1.126c0.442-0.703,0.499-1.579,0.146-2.332l-3.934-8.355h12.775c16.295,0,29.555,13.255,29.555,29.553
			v86.557c0,0.223,0.064,0.426,0.121,0.63H111.509c0,0.01,0,0.015,0,0.024c-0.207,1.61-0.223,3.218-0.279,4.828h115.651
			c2.169,0,3.934,1.763,3.934,3.929s-1.765,3.929-3.934,3.929h-115.38c0.082,0.734,0.067,1.47,0.175,2.198
			c0.097,0.896-0.274,1.835-0.835,2.655h114.318c-1.273,29.73-25.861,53.525-55.895,53.525h-8.371
			c-0.018-3.513-1.743-6.71-4.492-8.691l3.736-3.507c0.863-0.811,1.013-2.118,0.359-3.104l-3.679-5.569
			c-1.894-2.853-5.069-4.554-8.482-4.554c-5.618,0-10.187,4.567-10.187,10.188c0,1.464-0.011,3.133-0.021,4.459H125.05
			c-1.338,0-2.425,1.086-2.425,2.427v8.351H66.404c-30.04,0-54.624-23.795-55.9-53.525h11.431c0-0.082-0.031-0.148-0.031-0.229
			c0.113-1.658,0.174-3.161,0.192-4.625H8.785c-2.172,0-3.933-1.763-3.933-3.929s1.761-3.929,3.933-3.929h12.272
			c-0.189-0.664-0.332-1.298-0.596-1.999c-0.416-1.095-0.35-2.029-0.081-2.854H8.785c-4.841,0-8.785,3.938-8.785,8.781
			c0,3.753,2.378,6.938,5.694,8.193c0.609,20.335,11.203,38.19,27.09,48.778c-5.365,2.321-8.949,7.478-8.949,13.799
			c0,1.343,1.08,2.427,2.428,2.427c1.338,0,2.424-1.084,2.424-2.427c0-5.837,4.279-10.079,10.221-10.255
			c8.271,4.218,17.599,6.644,27.497,6.644h57.39c1.775,3.564,5.421,6.038,9.668,6.038h16.6c4.246,0,7.895-2.474,9.666-6.038h9.537
			c9.898,0,19.23-2.426,27.494-6.644c5.958,0.171,10.255,4.412,10.255,10.255c0,1.343,1.087,2.427,2.429,2.427
			c1.34,0,2.424-1.084,2.424-2.427c0-6.326-3.59-11.481-8.973-13.805c15.883-10.585,26.469-28.441,27.076-48.772
			c3.318-1.255,5.697-4.44,5.697-8.193C235.667,125.529,231.724,121.592,226.881,121.592z M152.554,11.813l3.271-6.961h12.219
			l3.276,6.961H152.554z M150.062,198.718h-16.6c-3.299,0-5.984-2.683-5.984-5.98v-5.98h13.061c1.326,0,2.408-1.071,2.424-2.402
			c0,0,0.041-3.886,0.041-6.91c0-2.943,2.391-5.336,5.333-5.336c1.786,0,3.452,0.896,4.442,2.384l2.543,3.854l-4.803,4.521
			c-0.646,0.602-0.912,1.512-0.692,2.364c0.219,0.854,0.882,1.526,1.733,1.748c2.645,0.697,4.489,3.062,4.489,5.759
			C156.049,196.035,153.36,198.718,150.062,198.718z"/>
		<path d="M148.726,48.157c1.347,0,2.428-1.086,2.428-2.426V33.6c0-1.341-1.081-2.427-2.428-2.427c-1.338,0-2.426,1.086-2.426,2.427
			v12.132C146.3,47.071,147.388,48.157,148.726,48.157z"/>
		<path d="M148.726,81.405c1.347,0,2.428-1.085,2.428-2.426V62.355c0-1.341-1.081-2.427-2.428-2.427
			c-1.338,0-2.426,1.086-2.426,2.427v16.624C146.3,80.32,147.388,81.405,148.726,81.405z"/>
		<path d="M148.726,110.156c1.347,0,2.428-1.085,2.428-2.427V95.599c0-1.341-1.081-2.427-2.428-2.427
			c-1.338,0-2.426,1.086-2.426,2.427v12.131C146.3,109.071,147.388,110.156,148.726,110.156z"/>
		<path d="M176.022,48.157c1.344,0,2.426-1.086,2.426-2.426V33.6c0-1.341-1.082-2.427-2.426-2.427c-1.338,0-2.428,1.086-2.428,2.427
			v12.132C173.595,47.071,174.685,48.157,176.022,48.157z"/>
		<path d="M173.595,78.979c0,1.341,1.09,2.426,2.428,2.426c1.344,0,2.426-1.085,2.426-2.426V62.355c0-1.341-1.082-2.427-2.426-2.427
			c-1.338,0-2.428,1.086-2.428,2.427V78.979z"/>
		<path d="M173.595,107.729c0,1.342,1.09,2.427,2.428,2.427c1.344,0,2.426-1.085,2.426-2.427V95.599
			c0-1.341-1.082-2.427-2.426-2.427c-1.338,0-2.428,1.086-2.428,2.427V107.729z"/>
		<path d="M161.568,48.157c1.341,0,2.428-1.086,2.428-2.426V33.6c0-1.341-1.087-2.427-2.428-2.427s-2.425,1.086-2.425,2.427v12.132
			C159.144,47.071,160.228,48.157,161.568,48.157z"/>
		<path d="M159.144,78.979c0,1.341,1.084,2.426,2.425,2.426s2.428-1.085,2.428-2.426V62.355c0-1.341-1.087-2.427-2.428-2.427
			s-2.425,1.086-2.425,2.427V78.979z"/>
		<path d="M159.144,107.729c0,1.342,1.084,2.427,2.425,2.427s2.428-1.085,2.428-2.427V95.599c0-1.341-1.087-2.427-2.428-2.427
			s-2.425,1.086-2.425,2.427V107.729z"/>
	</g>
	<path fill="#2F2924" d="M125.05,11.813h-12.072V2.729c0-0.346-0.126-0.815-0.286-1.171C112.339,0.63,111.45,0,110.424,0H88.571
		c-0.043,0-0.08,0.032-0.126,0.038C88.407,0.032,88.372,0,88.329,0H66.476c-0.047,0-0.078,0.032-0.121,0.038
		C66.308,0.032,66.272,0,66.229,0H44.376c-0.096,0-0.164,0.067-0.256,0.081C44.026,0.067,43.959,0,43.862,0h-21.85
		c-1.005,0-1.893,0.616-2.252,1.521c-0.173,0.36-0.301,0.844-0.301,1.208v9.084H8.026c-1.342,0-2.425,1.086-2.425,2.427
		c0,1.342,1.083,2.426,2.425,2.426H19.46v135.273c0,4.218,7.027,6.763,12.926,8.151c0.178,0.042,0.371,0.066,0.552,0.066
		c0.186,0,0.374-0.024,0.557-0.066c3.817-0.9,8.075-2.294,10.626-4.298c2.549,2.004,6.809,3.397,10.625,4.298
		c0.178,0.042,0.367,0.066,0.557,0.066c0.185,0,0.369-0.024,0.555-0.066c3.745-0.882,7.931-2.236,10.498-4.181
		c2.562,1.944,6.748,3.299,10.49,4.181c0.182,0.042,0.37,0.066,0.555,0.066c0.186,0,0.375-0.024,0.557-0.066
		c3.74-0.882,7.93-2.236,10.493-4.181c2.563,1.944,6.753,3.299,10.493,4.181c0.186,0.042,0.371,0.066,0.557,0.066
		c0.189,0,0.379-0.024,0.557-0.066c5.897-1.389,12.922-3.934,12.922-8.151V16.666h12.072c1.348,0,2.428-1.084,2.428-2.426
		C127.478,12.899,126.397,11.813,125.05,11.813z M32.938,155.233c-4.05-1.023-8.11-2.711-8.625-3.294V4.853h17.25l0.083,146.698
		C41.054,152.504,36.991,154.21,32.938,155.233z M55.302,155.233c-4.055-1.023-8.113-2.711-8.625-3.294V4.853h17.25v146.784
		C63.159,152.604,59.237,154.238,55.302,155.233z M77.399,155.233c-4.05-1.023-8.107-2.711-8.621-3.294V4.853h17.246v146.784
		C85.262,152.604,81.337,154.238,77.399,155.233z M99.499,155.233c-4.047-1.023-8.111-2.711-8.621-3.294V4.853h17.246l0.083,146.698
		C107.61,152.504,103.553,154.21,99.499,155.233z"/>
</g>
</svg>
